<mxfile host="65bd71144e" scale="6" border="0">
    <diagram id="N07hv5-AJOwamzyBToNy" name="Page-1">
        <mxGraphModel dx="531" dy="445" grid="1" gridSize="10" guides="1" tooltips="1" connect="1" arrows="1" fold="1" page="1" pageScale="1" pageWidth="850" pageHeight="1100" math="0" shadow="0">
            <root>
                <mxCell id="0"/>
                <mxCell id="1" parent="0"/>
                <mxCell id="41" value="" style="rounded=0;whiteSpace=wrap;html=1;strokeWidth=2;fillColor=#FCD9C9;strokeColor=#F28E77;fontFamily=Poppins;fontStyle=1;fontColor=#005854;" parent="1" vertex="1">
                    <mxGeometry x="120" y="120" width="210" height="300" as="geometry"/>
                </mxCell>
                <mxCell id="35" value="" style="rounded=0;whiteSpace=wrap;html=1;strokeWidth=2;fillColor=#CFE9EA;strokeColor=#64C1CB;fontFamily=Poppins;fontStyle=1;fontColor=#005854;" parent="1" vertex="1">
                    <mxGeometry x="130" y="150" width="190" height="220" as="geometry"/>
                </mxCell>
                <mxCell id="16" value="" style="rounded=0;whiteSpace=wrap;html=1;strokeWidth=2;fillColor=#FED992;strokeColor=#F3A44C;fontFamily=Poppins;fontStyle=1;fontColor=#005854;" parent="1" vertex="1">
                    <mxGeometry x="140" y="180" width="170" height="140" as="geometry"/>
                </mxCell>
                <mxCell id="14" value="" style="rounded=0;whiteSpace=wrap;html=1;fillColor=#C7E3D2;strokeWidth=2;strokeColor=#84C497;fontFamily=Poppins;fontStyle=1;fontColor=#005854;" parent="1" vertex="1">
                    <mxGeometry x="147" y="211" width="76" height="100" as="geometry"/>
                </mxCell>
                <mxCell id="6" value="" style="group;fontFamily=Poppins;fontStyle=1;fontColor=#005854;" parent="1" vertex="1" connectable="0">
                    <mxGeometry x="155" y="239" width="80" height="70" as="geometry"/>
                </mxCell>
                <mxCell id="2" value="" style="rounded=0;whiteSpace=wrap;html=1;fontFamily=Poppins;fontStyle=1;fontColor=#005854;" parent="6" vertex="1">
                    <mxGeometry width="40" height="40" as="geometry"/>
                </mxCell>
                <mxCell id="3" value="" style="rounded=0;whiteSpace=wrap;html=1;fontFamily=Poppins;fontStyle=1;fontColor=#005854;" parent="6" vertex="1">
                    <mxGeometry x="10" y="10" width="40" height="40" as="geometry"/>
                </mxCell>
                <mxCell id="4" value="" style="rounded=0;whiteSpace=wrap;html=1;fontFamily=Poppins;fontStyle=1;fontColor=#005854;" parent="6" vertex="1">
                    <mxGeometry x="20" y="20" width="40" height="40" as="geometry"/>
                </mxCell>
                <mxCell id="5" value="" style="shape=image;verticalLabelPosition=bottom;labelBackgroundColor=default;verticalAlign=top;aspect=fixed;imageAspect=0;image=data:image/png,iVBORw0KGgoAAAANSUhEUgAAAJYAAACWCAMAAAAL34HQAAAAAXNSR0IArs4c6QAAAARnQU1BAACxjwv8YQUAAAAzUExURQAAAAAAAAAAAAAAAAAAAAAAAAAAAAAAAAAAAAAAAAAAAAAAAAAAAAAAAAAAAAAAAAAAAKMFRskAAAAQdFJOUwAQIDBAUGBwgI+fr7/P3+8jGoKKAAAACXBIWXMAABcRAAAXEQHKJvM/AAAGnklEQVR4Xu2c25aqMAyGBxFBDsL7P+0GGpoW0rRJAddey+9qdBB+mzSHUvz78ePHf0nRjtO7gBdRym4+Gv6+lG5aaOBVhNe4HFzDqwspV1XTNDzgDYbCfIVphNcXUpgrzdd6wjtBnutQzXzgjSv5wLWmKaKrhsOmW5yrTNSFqvrkCZJFC5ebphLeIbCqxhsc3mDm10zYacrtkJ6RfjbbFJs6eGNPMcABzT0G3OjhsoGxaODft0RSh204aDM+wITtvWM18zAXnip47fE2/xtuVzUHS3NpKoLDYI0JieB8wO1f8NIBIkhi3jwZMONxuCBtjl8w4QIMysG7YBp+Z7Bs1m7hpcVM0m8N1jZceyuCDb81WH9/lRFQl3U7DOP4Gbp3VWw2/Mo0XLG1l8vHVBgDHPMNttRIcHfacXmBBgIy+t+DLSQIoiX1ZTh1KgER/W/BdhABvqOrjqj6jnvZqjjMFyoIWxVz3NEf+kChF+Fu98ImkOX0Lv/5ejGeUbChwYHL189KGttMnDxULBbI0XHCw/VcnHOQCYPo3cPLA0x03xHyrgrKfUlzawcj8KGt60kg1N9ufWbo/xR2kSFgxq05TYGuUbdVstD/SaysgGukOvwCbUWcyQJZGJTID5HVXwi67rLOKQkhONHImQKNaxqk8xQ2c0l8C4eDjDtM8XeEHA783qJGhP8yiSHeQMrCOSPK5tv0jZ00AfIMds5IXCv2bdLSNEBdGMNDOJFQoO2phc/s0UIvkFWK6POUcyVnxAVKFuYuYaHIGl8ki2pj7dmlPS4bUHPDKbqWtMfF0EQFVEnyIbwHfVPahPABVTIVCe/BzCNIiAY2oJZdMkQE0GUeAx9Qs1BmnhW0k3AOx7Flk+LUfEDNQh0eZviAmoM+PCwos2kcbeYxRCpUPerMs8IH1AxyXMttuvbTuGxl+F0dVtzy8LAAHz74fGFDWiL+uo0+8xhCAVVUba14My43TqPPN653Ja+KIM7yW4E2VAYer6r6dJs2UdsDrF5UPOvOXatTrn0dq6pFm9izFsZn3Q42QQPapCa3lgT1zRdMqVegyTwroi5VjC48zCjmXDoZN/01ky6VnIx2mRnHzJXxqvFizRnMYaY8pSipXm9NtDoyLoEPTnoSj6rp9xFRwNg3z8u2TKUvfO85u/T20IeM8/s6BLsDOSf7lItoqWbHyaW3S04cu3Djot7jL/X5nCR5qs8XT2hfFnIGa7aiS97CRnVZEdFlxFa77fUCRHcSPa5Updd1rSqtrviukFw0uq5XpdElVjWURSmuyqS6xKrWtWx5UyLT5an69Aa2eja5hVuwHy3wxopEl6fKtk5sWWO6UW41B9eTvJvK6bpoVfwtaoksna6AKr7aistyc7VCl1dUuQ+dnChLriuo6kQjzgh1hVXluvxu5Uiki1HF390Uy5Lo4lTlyjpUzcm6WFXbPniauCxzhEuirogqNobHZRHrbEm6PFXdUVURHwvuiPp4xhRd3v7W/XNDxTOyMBKXNYeIZZO/j68L3vRwT+mrKuv4Wk2KrIX+7RvT00UtxjntlqOqqNqkdbdUWQv92+n8XV38LgJUVbyjwwRIZM0MODDOCi01WjblOWOV3rAKZbkT00412ueh5HVUCVZoxLKc+1ObLnOOA4sZR3ceC2pzsSxXhNEVfoa88lZcJatsclluOCiatmGyj8/xIsM71ETwstqGGHjt7RVfwvB+zUMZGkFW1lriVntpsg14Fsfhh7e1buCOCycLn1f3pClXvDA6eKtRdNDgZPnrkxgfVXdYcD+TX8DRPSoja1doZW6TQRvucoKXxjbCsj77eR+wQiL204fnYihdQVnHH2hA71SsPuOukeNYE8/4hGQRPxuBVlQ4PV6BiC+PQ1URkEXUuHn7yuyFyX2Fh30HtCw6n6DXikMXhk1zwQO7+/6UrOBPLti5LLYiXiB0s6b0hJnZ6sbasQ2aSB26MDgx2yhKJ7Ia8U4ryf0OBE4noRWDQcun2jxwW2DYvk3P3xBDK5LOFyQ55D3qRZnNemtI+0SLFOz9RFYMJR6aqsGTN+9XQuGExg4+eEWB34a1oR5dArJR6aoHMlUJCIOWKsknoEpAbOI5B00C0s5fAYoEhB8JJJ4zkCcgnCZ8UMxCnIBkQUsLV8+RJCaeXKwVEzeU4PAmN7oaMGSnuYqVdaUN3dCV5lw2Al9qQyeVpEWurdY6dFInszVQqdn6ueriFvDPwXhLyk/qAXXXUevVZ1P1n/6O6/z48UPD398/HsTLskrwKZQAAAAASUVORK5CYII=;rotation=25;fontFamily=Poppins;fontStyle=1;fontColor=#005854;" parent="6" vertex="1">
                    <mxGeometry x="26.25" y="26.25" width="27.5" height="27.5" as="geometry"/>
                </mxCell>
                <mxCell id="12" value="Cam 1" style="text;html=1;strokeColor=none;fillColor=none;align=center;verticalAlign=middle;whiteSpace=wrap;rounded=0;fontStyle=1;fontFamily=Poppins;fontColor=#005854;" parent="1" vertex="1">
                    <mxGeometry x="152" y="211" width="60" height="30" as="geometry"/>
                </mxCell>
                <mxCell id="17" value="Sample 1" style="text;html=1;strokeColor=none;fillColor=none;align=center;verticalAlign=middle;whiteSpace=wrap;rounded=0;strokeWidth=2;fontStyle=1;fontFamily=Poppins;fontColor=#005854;" parent="1" vertex="1">
                    <mxGeometry x="195" y="180" width="60" height="30" as="geometry"/>
                </mxCell>
                <mxCell id="36" value="Specimen 1" style="text;html=1;strokeColor=none;fillColor=none;align=center;verticalAlign=middle;whiteSpace=wrap;rounded=0;strokeWidth=2;fontStyle=1;fontFamily=Poppins;fontColor=#005854;" parent="1" vertex="1">
                    <mxGeometry x="195" y="150" width="75" height="30" as="geometry"/>
                </mxCell>
                <mxCell id="37" value="" style="rounded=0;whiteSpace=wrap;html=1;strokeWidth=2;fillColor=#FED992;strokeColor=#F3A44C;fontFamily=Poppins;fontStyle=1;fontColor=#005854;" parent="1" vertex="1">
                    <mxGeometry x="140" y="330" width="170" height="30" as="geometry"/>
                </mxCell>
                <mxCell id="38" value="Sample 2" style="text;html=1;strokeColor=none;fillColor=none;align=center;verticalAlign=middle;whiteSpace=wrap;rounded=0;strokeWidth=2;fontStyle=1;fontFamily=Poppins;fontColor=#005854;" parent="1" vertex="1">
                    <mxGeometry x="144" y="330" width="60" height="30" as="geometry"/>
                </mxCell>
                <mxCell id="39" value="" style="rounded=0;whiteSpace=wrap;html=1;strokeWidth=2;fillColor=#CFE9EA;strokeColor=#64C1CB;fontFamily=Poppins;fontStyle=1;fontColor=#005854;" parent="1" vertex="1">
                    <mxGeometry x="130" y="380" width="190" height="30" as="geometry"/>
                </mxCell>
                <mxCell id="40" value="Specimen 2" style="text;html=1;strokeColor=none;fillColor=none;align=center;verticalAlign=middle;whiteSpace=wrap;rounded=0;strokeWidth=2;fontStyle=1;fontFamily=Poppins;fontColor=#005854;" parent="1" vertex="1">
                    <mxGeometry x="135" y="380" width="95" height="30" as="geometry"/>
                </mxCell>
                <mxCell id="42" value="Taxon A" style="text;html=1;strokeColor=none;fillColor=none;align=center;verticalAlign=middle;whiteSpace=wrap;rounded=0;strokeWidth=2;fontStyle=1;fontFamily=Poppins;fontColor=#005854;" parent="1" vertex="1">
                    <mxGeometry x="190" y="120" width="65" height="30" as="geometry"/>
                </mxCell>
                <mxCell id="43" value="" style="rounded=0;whiteSpace=wrap;html=1;strokeWidth=2;fillColor=#FCD9C9;strokeColor=#F28E77;fontFamily=Poppins;fontStyle=1;fontColor=#005854;" parent="1" vertex="1">
                    <mxGeometry x="340" y="120" width="70" height="300" as="geometry"/>
                </mxCell>
                <mxCell id="44" value="Taxon B" style="text;html=1;strokeColor=none;fillColor=none;align=center;verticalAlign=middle;whiteSpace=wrap;rounded=0;strokeWidth=2;fontStyle=1;fontFamily=Poppins;fontColor=#005854;" parent="1" vertex="1">
                    <mxGeometry x="343.75" y="120" width="62.5" height="30" as="geometry"/>
                </mxCell>
                <mxCell id="45" value="Sp. 5" style="rounded=0;whiteSpace=wrap;html=1;strokeWidth=2;fillColor=#CFE9EA;strokeColor=#64C1CB;fontStyle=1;fontFamily=Poppins;fontColor=#005854;" parent="1" vertex="1">
                    <mxGeometry x="350" y="370" width="50" height="30" as="geometry"/>
                </mxCell>
                <mxCell id="46" value="Sp. 4" style="rounded=0;whiteSpace=wrap;html=1;strokeWidth=2;fillColor=#CFE9EA;strokeColor=#64C1CB;fontStyle=1;fontFamily=Poppins;fontColor=#005854;" parent="1" vertex="1">
                    <mxGeometry x="350" y="320" width="50" height="30" as="geometry"/>
                </mxCell>
                <mxCell id="47" value="Sp. 3" style="rounded=0;whiteSpace=wrap;html=1;strokeWidth=2;fillColor=#CFE9EA;strokeColor=#64C1CB;fontStyle=1;fontFamily=Poppins;fontColor=#005854;" parent="1" vertex="1">
                    <mxGeometry x="350" y="270" width="50" height="30" as="geometry"/>
                </mxCell>
                <mxCell id="53" value="Sp. 2" style="rounded=0;whiteSpace=wrap;html=1;strokeWidth=2;fillColor=#CFE9EA;strokeColor=#64C1CB;fontStyle=1;fontFamily=Poppins;fontColor=#005854;" parent="1" vertex="1">
                    <mxGeometry x="350" y="220" width="50" height="30" as="geometry"/>
                </mxCell>
                <mxCell id="54" value="Sp. 1" style="rounded=0;whiteSpace=wrap;html=1;strokeWidth=2;fillColor=#CFE9EA;strokeColor=#64C1CB;fontStyle=1;fontFamily=Poppins;fontColor=#005854;" parent="1" vertex="1">
                    <mxGeometry x="350" y="170" width="50" height="30" as="geometry"/>
                </mxCell>
                <mxCell id="55" value="Cam 1" style="rounded=0;whiteSpace=wrap;html=1;strokeWidth=2;fillColor=#C7E3D2;strokeColor=#84C497;fontStyle=1;fontFamily=Poppins;fontColor=#005854;" parent="1" vertex="1">
                    <mxGeometry x="210" y="335" width="45" height="20" as="geometry"/>
                </mxCell>
                <mxCell id="59" value="Cam 2" style="rounded=0;whiteSpace=wrap;html=1;strokeWidth=2;fillColor=#C7E3D2;strokeColor=#84C497;fontStyle=1;fontFamily=Poppins;fontColor=#005854;" parent="1" vertex="1">
                    <mxGeometry x="260" y="335" width="45" height="20" as="geometry"/>
                </mxCell>
                <mxCell id="60" value="Sample" style="rounded=0;whiteSpace=wrap;html=1;strokeWidth=2;fillColor=#FED992;fontStyle=1;strokeColor=#F3A44C;fontFamily=Poppins;fontColor=#005854;" parent="1" vertex="1">
                    <mxGeometry x="248.75" y="385" width="51.25" height="20" as="geometry"/>
                </mxCell>
                <mxCell id="61" value="" style="rounded=0;whiteSpace=wrap;html=1;fillColor=#C7E3D2;strokeWidth=2;strokeColor=#84C497;fontFamily=Poppins;fontStyle=1;fontColor=#005854;" parent="1" vertex="1">
                    <mxGeometry x="228" y="211" width="75" height="100" as="geometry"/>
                </mxCell>
                <mxCell id="8" value="" style="rounded=0;whiteSpace=wrap;html=1;fontFamily=Poppins;fontStyle=1;fontColor=#005854;" parent="1" vertex="1">
                    <mxGeometry x="235" y="240" width="40" height="40" as="geometry"/>
                </mxCell>
                <mxCell id="9" value="" style="rounded=0;whiteSpace=wrap;html=1;fontFamily=Poppins;fontStyle=1;fontColor=#005854;" parent="1" vertex="1">
                    <mxGeometry x="245" y="250" width="40" height="40" as="geometry"/>
                </mxCell>
                <mxCell id="10" value="" style="rounded=0;whiteSpace=wrap;html=1;fontFamily=Poppins;fontStyle=1;fontColor=#005854;" parent="1" vertex="1">
                    <mxGeometry x="255" y="260" width="40" height="40" as="geometry"/>
                </mxCell>
                <mxCell id="11" value="" style="shape=image;verticalLabelPosition=bottom;labelBackgroundColor=default;verticalAlign=top;aspect=fixed;imageAspect=0;image=data:image/png,iVBORw0KGgoAAAANSUhEUgAAAJYAAACWCAMAAAAL34HQAAAAAXNSR0IArs4c6QAAAARnQU1BAACxjwv8YQUAAAAzUExURQAAAAAAAAAAAAAAAAAAAAAAAAAAAAAAAAAAAAAAAAAAAAAAAAAAAAAAAAAAAAAAAAAAAKMFRskAAAAQdFJOUwAQIDBAUGBwgI+fr7/P3+8jGoKKAAAACXBIWXMAABcRAAAXEQHKJvM/AAAGnklEQVR4Xu2c25aqMAyGBxFBDsL7P+0GGpoW0rRJAddey+9qdBB+mzSHUvz78ePHf0nRjtO7gBdRym4+Gv6+lG5aaOBVhNe4HFzDqwspV1XTNDzgDYbCfIVphNcXUpgrzdd6wjtBnutQzXzgjSv5wLWmKaKrhsOmW5yrTNSFqvrkCZJFC5ebphLeIbCqxhsc3mDm10zYacrtkJ6RfjbbFJs6eGNPMcABzT0G3OjhsoGxaODft0RSh204aDM+wITtvWM18zAXnip47fE2/xtuVzUHS3NpKoLDYI0JieB8wO1f8NIBIkhi3jwZMONxuCBtjl8w4QIMysG7YBp+Z7Bs1m7hpcVM0m8N1jZceyuCDb81WH9/lRFQl3U7DOP4Gbp3VWw2/Mo0XLG1l8vHVBgDHPMNttRIcHfacXmBBgIy+t+DLSQIoiX1ZTh1KgER/W/BdhABvqOrjqj6jnvZqjjMFyoIWxVz3NEf+kChF+Fu98ImkOX0Lv/5ejGeUbChwYHL189KGttMnDxULBbI0XHCw/VcnHOQCYPo3cPLA0x03xHyrgrKfUlzawcj8KGt60kg1N9ufWbo/xR2kSFgxq05TYGuUbdVstD/SaysgGukOvwCbUWcyQJZGJTID5HVXwi67rLOKQkhONHImQKNaxqk8xQ2c0l8C4eDjDtM8XeEHA783qJGhP8yiSHeQMrCOSPK5tv0jZ00AfIMds5IXCv2bdLSNEBdGMNDOJFQoO2phc/s0UIvkFWK6POUcyVnxAVKFuYuYaHIGl8ki2pj7dmlPS4bUHPDKbqWtMfF0EQFVEnyIbwHfVPahPABVTIVCe/BzCNIiAY2oJZdMkQE0GUeAx9Qs1BmnhW0k3AOx7Flk+LUfEDNQh0eZviAmoM+PCwos2kcbeYxRCpUPerMs8IH1AxyXMttuvbTuGxl+F0dVtzy8LAAHz74fGFDWiL+uo0+8xhCAVVUba14My43TqPPN653Ja+KIM7yW4E2VAYer6r6dJs2UdsDrF5UPOvOXatTrn0dq6pFm9izFsZn3Q42QQPapCa3lgT1zRdMqVegyTwroi5VjC48zCjmXDoZN/01ky6VnIx2mRnHzJXxqvFizRnMYaY8pSipXm9NtDoyLoEPTnoSj6rp9xFRwNg3z8u2TKUvfO85u/T20IeM8/s6BLsDOSf7lItoqWbHyaW3S04cu3Djot7jL/X5nCR5qs8XT2hfFnIGa7aiS97CRnVZEdFlxFa77fUCRHcSPa5Updd1rSqtrviukFw0uq5XpdElVjWURSmuyqS6xKrWtWx5UyLT5an69Aa2eja5hVuwHy3wxopEl6fKtk5sWWO6UW41B9eTvJvK6bpoVfwtaoksna6AKr7aistyc7VCl1dUuQ+dnChLriuo6kQjzgh1hVXluvxu5Uiki1HF390Uy5Lo4lTlyjpUzcm6WFXbPniauCxzhEuirogqNobHZRHrbEm6PFXdUVURHwvuiPp4xhRd3v7W/XNDxTOyMBKXNYeIZZO/j68L3vRwT+mrKuv4Wk2KrIX+7RvT00UtxjntlqOqqNqkdbdUWQv92+n8XV38LgJUVbyjwwRIZM0MODDOCi01WjblOWOV3rAKZbkT00412ueh5HVUCVZoxLKc+1ObLnOOA4sZR3ceC2pzsSxXhNEVfoa88lZcJatsclluOCiatmGyj8/xIsM71ETwstqGGHjt7RVfwvB+zUMZGkFW1lriVntpsg14Fsfhh7e1buCOCycLn1f3pClXvDA6eKtRdNDgZPnrkxgfVXdYcD+TX8DRPSoja1doZW6TQRvucoKXxjbCsj77eR+wQiL204fnYihdQVnHH2hA71SsPuOukeNYE8/4hGQRPxuBVlQ4PV6BiC+PQ1URkEXUuHn7yuyFyX2Fh30HtCw6n6DXikMXhk1zwQO7+/6UrOBPLti5LLYiXiB0s6b0hJnZ6sbasQ2aSB26MDgx2yhKJ7Ia8U4ryf0OBE4noRWDQcun2jxwW2DYvk3P3xBDK5LOFyQ55D3qRZnNemtI+0SLFOz9RFYMJR6aqsGTN+9XQuGExg4+eEWB34a1oR5dArJR6aoHMlUJCIOWKsknoEpAbOI5B00C0s5fAYoEhB8JJJ4zkCcgnCZ8UMxCnIBkQUsLV8+RJCaeXKwVEzeU4PAmN7oaMGSnuYqVdaUN3dCV5lw2Al9qQyeVpEWurdY6dFInszVQqdn6ueriFvDPwXhLyk/qAXXXUevVZ1P1n/6O6/z48UPD398/HsTLskrwKZQAAAAASUVORK5CYII=;rotation=-45;fontFamily=Poppins;fontStyle=1;fontColor=#005854;" parent="1" vertex="1">
                    <mxGeometry x="261.25" y="266.25" width="27.5" height="27.5" as="geometry"/>
                </mxCell>
                <mxCell id="13" value="Cam 2" style="text;html=1;strokeColor=none;fillColor=none;align=center;verticalAlign=middle;whiteSpace=wrap;rounded=0;fontStyle=1;fontFamily=Poppins;fontColor=#005854;" parent="1" vertex="1">
                    <mxGeometry x="228.75" y="210" width="60" height="30" as="geometry"/>
                </mxCell>
            </root>
        </mxGraphModel>
    </diagram>
</mxfile>